
<svg width="338px" height="309px" viewBox="0 0 338 309" version="1.1" xmlns="http://www.w3.org/2000/svg" xmlns:xlink="http://www.w3.org/1999/xlink">
    <!-- Generator: Sketch 48.2 (47327) - http://www.bohemiancoding.com/sketch -->
    <desc>Created with Sketch.</desc>
    <defs></defs>
    <g id="Page-1" stroke="none" stroke-width="1" fill="none" fill-rule="evenodd">
        <g id="Group-3">
            <path d="M29,0 L309,0 C325.016258,0 338,12.9837423 338,29 L338,280 C338,296.016258 325.016258,309 309,309 L29,309 C12.9837423,309 0,296.016258 0,280 L0,29 C0,12.9837423 12.9837423,0 29,0 Z" id="Rectangle" fill="#030648"></path>
            <g id="Group-2" transform="translate(110.000000, 40.000000)" fill="#435183" fill-opacity="0.98">
                <ellipse id="Oval" cx="58" cy="56.5" rx="57" ry="56.5"></ellipse>
                <polygon id="Path-3" points="34.5 108 0.5 231 116.5 231 79 108"></polygon>
            </g>
            <path d="M163.712534,226.98519 L163.712534,125.052182 C170.735108,111.073221 177.33093,101.888837 183.5,97.4990288 C189.66907,93.1092208 201.835737,88.9421702 220,84.997877 C215.578692,105.283092 210.912025,118.634527 206,125.052182 C201.087975,131.469837 190.701828,136.452206 174.84156,139.99929 L174.84156,226.98519 L185.114508,230.383608 C189.109543,232.211012 191.107061,234.853502 191.107061,238.31108 C191.107061,241.768658 189.109543,245.647134 185.114508,249.946509 C178.602439,253.538918 173.56427,255.390081 170,255.5 C166.43573,255.609919 160.344873,254.101964 151.727428,250.976135 C146.296488,246.074376 143.728251,241.852691 144.022717,238.31108 C144.317183,234.76947 147.456139,231.78377 153.439586,229.353982 L163.712534,226.98519 Z" id="Path-4" fill="#37F1B0"></path>
            <ellipse id="Oval-2" fill="#37F1B0" cx="168" cy="241.5" rx="27" ry="14.5"></ellipse>
            <g id="Group" transform="translate(124.000000, 78.000000)" fill="#37F1B0">
                <path d="M39,35 C24.0335564,30.1375454 14.7734144,26.1072424 11.2195739,22.9090909 C-1.87759643,11.1227613 0.107403501,0 0.107403501,0" id="Path-7"></path>
                <path d="M0,0 C15.19157,4.77016607 24.7037651,8.87510435 28.5365854,12.3148148 C32.3694056,15.7545253 35.8572105,23.3162537 39,35 L37.5,34" id="Path-8"></path>
            </g>
            <g id="Group" transform="translate(184.628790, 77.214577) rotate(75.000000) translate(-184.628790, -77.214577) translate(172.628790, 63.214577)" fill="#37F1B0">
                <path d="M22,28 C13.9188909,24.1795 8.91889089,21.0128333 7,18.5 C-0.0717977764,9.23931244 1,0.5 1,0.5" id="Path-7"></path>
                <path d="M1,1 C9.20266577,4.54355194 14.3387615,7.59293466 16.4082871,10.1481481 C18.4778127,12.7033616 20.8203686,18.1590035 23.4359547,26.5150738" id="Path-8"></path>
            </g>
            <path d="M187.5,230 C183.929929,232.595851 180.929929,234.429184 178.5,235.5 C176.070071,236.570816 169.236738,239.070816 158,243 C166.820166,241.769341 173.486833,240.436008 178,239 C182.513167,237.563992 186.8465,235.397326 191,232.5 L187.5,230 Z" id="Path-9" fill="#425081"></path>
            <path d="M211,94.5 C202.832288,102.227926 196.832288,108.061259 193,112 C189.167712,115.938741 183.167712,122.438741 175,131.5 L175,127.5 C182.130427,119.713775 187.630427,114.047109 191.5,110.5 C195.369573,106.952891 201.869573,101.619558 211,94.5 Z" id="Path-10" fill="#425081"></path>
            <path d="M164.5,112 L161.5,114.5 C157.204984,108.729283 153.704984,104.562617 151,102 C148.295016,99.4373834 142.295016,94.6040501 133,87.5 C140.976964,92.7783795 147.143631,97.1117128 151.5,100.5 C155.856369,103.888287 160.189703,107.721621 164.5,112 Z" id="Path-11" fill="#425081"></path>
        </g>
    </g>
</svg>
